<?xml version="1.0" standalone="no"?>
<!DOCTYPE svg PUBLIC "-//W3C//DTD SVG 20010904//EN"
 "http://www.w3.org/TR/2001/REC-SVG-20010904/DTD/svg10.dtd">
<svg version="1.0" xmlns="http://www.w3.org/2000/svg"
 width="568.000000pt" height="568.000000pt" viewBox="0 0 568.000000 568.000000"
 preserveAspectRatio="xMidYMid meet">
<metadata>
Created by potrace 1.14, written by Peter Selinger 2001-2017
</metadata>
<g transform="translate(0.000000,568.000000) scale(0.100000,-0.100000)"
fill="#000000" stroke="none">
<path d="M4152 5318 c-20 -25 -23 -76 -9 -129 26 -96 87 -304 94 -319 3 -8 7
-17 8 -20 9 -38 34 -95 61 -141 19 -32 34 -62 34 -67 0 -6 4 -12 8 -14 7 -3
74 -116 122 -208 11 -21 19 -26 30 -20 8 4 40 8 70 8 52 -1 55 1 52 23 -1 13
-35 126 -76 250 -70 215 -77 231 -146 335 -40 60 -77 111 -82 112 -4 2 -8 8
-8 12 0 17 -124 190 -136 190 -6 0 -16 -6 -22 -12z m207 -295 c6 -7 11 -14 11
-16 0 -3 19 -33 41 -67 31 -46 39 -64 30 -73 -13 -13 -8 -18 -92 93 -35 47
-66 87 -69 90 -3 3 -21 28 -39 55 -19 28 -38 52 -42 55 -9 7 -40 68 -38 77 0
5 5 16 11 26 8 16 22 0 93 -105 45 -68 88 -128 94 -135z"/>
<path d="M4185 4489 c-16 -5 -43 -11 -60 -14 -36 -5 -106 -23 -235 -60 -52
-15 -102 -29 -110 -31 -8 -2 -42 -11 -75 -20 -33 -9 -67 -18 -75 -19 -8 -2
-15 -4 -15 -6 0 -9 -146 -17 -165 -9 -8 4 -31 14 -50 22 -19 8 -48 21 -64 29
-41 20 -131 15 -195 -10 -197 -79 -452 -246 -457 -299 0 -4 -4 -22 -8 -40 -4
-19 -4 -38 0 -42 5 -4 45 -11 89 -14 44 -4 98 -9 120 -11 129 -13 165 -14 172
-2 5 7 28 23 53 36 84 43 385 195 390 196 3 1 37 16 75 34 72 34 243 102 350
139 156 54 292 72 324 43 10 -9 40 -70 67 -136 26 -66 74 -171 106 -233 70
-138 68 -159 -12 -106 l-39 26 -58 -35 c-122 -74 -260 -146 -405 -213 -173
-79 -165 -78 -273 -37 -70 26 -89 43 -65 58 6 3 10 17 10 29 0 28 -29 41 -105
50 -27 4 -61 8 -75 10 -14 3 -43 7 -65 10 -22 3 -53 8 -70 10 -16 3 -50 8 -75
11 -25 3 -58 8 -75 11 -16 2 -46 6 -65 9 -51 6 -121 16 -150 21 -14 3 -41 7
-60 9 -64 8 -115 14 -155 21 -22 3 -51 7 -65 9 -14 2 -43 6 -65 9 -57 8 -125
17 -158 21 -15 2 -62 9 -105 15 -42 5 -95 12 -117 15 -84 10 -121 15 -155 20
-179 26 -293 0 -387 -88 l-31 -29 91 -94 c50 -52 94 -94 99 -94 4 0 37 14 74
30 37 17 68 30 69 28 2 -2 5 -16 7 -32 3 -26 -3 -31 -87 -77 -49 -26 -132 -70
-183 -96 -107 -54 -109 -56 -127 -156 -7 -38 -8 -41 -6 -49 0 -4 81 33 179 81
221 110 217 109 248 80 33 -31 30 -42 -14 -61 -56 -24 -84 -50 -77 -71 4 -9
11 -17 15 -17 10 0 179 76 200 90 8 6 22 13 30 16 8 4 48 22 87 40 74 34 93
40 93 27 -1 -28 -31 -46 -350 -206 -202 -217 -449 -222 -550 -175 -45 21 -203
126 -253 168 -161 136 -215 148 -350 80 -112 -56 -129 -70 -125 -103 l3 -26
89 45 c48 25 91 42 94 39 15 -15 -23 -44 -123 -97 -60 -31 -115 -64 -122 -74
-7 -10 -13 -35 -13 -57 0 -35 2 -38 23 -31 12 3 48 20 79 35 32 16 63 29 71
29 7 0 66 -51 132 -114 271 -257 242 -235 282 -213 23 13 24 12 -213 260 -36
38 -63 74 -61 82 8 20 62 23 95 6 16 -9 55 -34 88 -56 106 -71 175 -96 277
-100 26 -2 50 -3 55 -4 4 -1 -26 -18 -67 -39 -74 -37 -101 -67 -85 -95 8 -12
32 -5 154 45 80 32 152 62 160 65 8 3 53 21 100 40 47 19 94 38 105 43 41 19
290 122 300 124 6 2 32 13 58 24 55 25 64 22 124 -33 38 -35 66 -41 113 -22 8
3 60 20 115 38 55 17 106 36 113 42 6 5 12 6 12 2 0 -4 6 -3 13 2 6 5 41 20
77 32 36 13 79 29 95 36 17 7 109 44 205 83 96 39 207 85 245 102 39 17 70 30
71 28 0 -2 8 3 16 10 10 8 50 12 122 11 102 -1 136 -11 79 -25 -16 -4 -32 -10
-38 -14 -5 -3 -32 -14 -60 -24 -27 -10 -59 -22 -70 -27 -192 -86 -1404 -507
-1595 -554 -8 -2 -72 -19 -142 -39 -110 -30 -184 -47 -308 -71 -26 -5 -122
-16 -175 -20 -31 -2 -115 -34 -115 -44 0 -3 14 -21 32 -40 27 -29 35 -32 69
-27 34 6 39 3 58 -29 11 -19 27 -35 35 -35 8 0 84 22 168 49 194 63 468 149
623 196 66 20 131 41 145 46 14 5 34 11 45 14 11 2 85 25 165 50 80 26 150 48
155 49 6 1 33 9 60 18 28 9 124 40 215 68 179 56 706 227 730 237 8 3 20 7 25
8 32 8 354 138 490 198 147 65 369 183 429 229 93 71 113 110 99 192 -6 35
-42 132 -83 226 -90 206 -116 255 -149 276 -29 20 -130 27 -176 13z m-875
-151 c19 -6 64 -24 99 -40 55 -24 62 -31 50 -42 -22 -21 -193 -106 -213 -106
-33 0 -12 34 36 60 65 34 67 47 10 71 -26 11 -65 28 -86 37 l-39 16 29 12 c30
12 56 11 114 -8z m-89 -78 l24 -13 -25 -10 c-23 -10 -187 -90 -252 -124 -25
-13 -65 -13 -140 0 -19 3 -37 17 -22 17 5 0 25 14 44 30 19 16 39 30 43 30 5
0 23 10 40 22 81 58 225 81 288 48z m-1176 -295 c11 -2 43 -7 70 -10 114 -14
204 -26 235 -31 14 -3 43 -7 65 -9 22 -3 55 -7 73 -10 18 -3 54 -8 80 -11 45
-5 56 -6 127 -18 17 -3 51 -7 77 -10 49 -6 102 -13 153 -21 17 -2 53 -7 80
-10 28 -4 57 -8 65 -10 8 -2 42 -7 75 -11 33 -3 63 -8 66 -10 3 -1 39 -6 80
-10 41 -3 76 -8 79 -9 3 -2 33 -7 65 -10 33 -4 64 -11 69 -15 14 -14 -36 -68
-76 -81 -22 -7 -51 -9 -75 -4 -21 5 -42 9 -48 9 -25 3 -100 18 -202 40 -40 9
-87 18 -105 21 -18 3 -46 9 -63 12 -16 4 -34 8 -40 8 -5 1 -23 4 -40 8 -29 7
-51 12 -105 22 -34 7 -62 12 -150 30 -41 8 -86 17 -100 20 -32 6 -167 34 -200
41 -68 14 -272 55 -305 60 -45 7 -57 13 -50 24 5 9 44 7 100 -5z"/>
<path d="M4486 4371 c-8 -13 6 -49 56 -148 24 -46 49 -83 57 -83 20 0 105 95
136 151 42 77 30 84 -152 88 -51 1 -94 -2 -97 -8z m207 -20 c15 -1 27 -4 27
-8 0 -9 -169 -77 -175 -72 -1 2 -10 21 -18 41 -11 25 -12 38 -5 40 10 4 66 3
171 -1z"/>
<path d="M4031 2022 c-5 -9 -12 -35 -16 -57 -10 -51 -35 -115 -45 -115 -5 0
-11 8 -14 18 -4 11 -17 29 -30 41 -22 20 -27 21 -50 9 l-25 -13 50 -64 c58
-75 58 -74 -4 -201 -23 -47 -43 -88 -45 -92 -2 -3 21 6 50 20 44 23 57 36 79
80 24 50 27 52 42 37 9 -9 21 -24 26 -33 8 -15 12 -15 41 -1 28 13 31 17 18
30 -40 40 -88 113 -84 128 11 33 27 231 19 231 -1 0 -7 -8 -12 -18z"/>
<path d="M4650 4161 l-46 -47 18 -59 c9 -33 18 -62 19 -65 1 -3 5 -15 10 -28
5 -13 9 -26 9 -30 0 -4 18 -62 39 -129 30 -93 52 -142 96 -210 32 -48 61 -90
64 -93 3 -3 11 -12 16 -22 23 -39 109 -163 115 -168 4 -3 12 -15 19 -27 23
-44 60 -20 66 41 3 34 -47 224 -102 386 -25 74 -85 194 -166 333 -23 40 -53
93 -67 120 -14 26 -29 46 -35 45 -5 0 -30 -22 -55 -47z m174 -492 c15 -22 36
-48 46 -57 11 -9 20 -20 20 -24 0 -4 29 -45 64 -90 35 -46 70 -97 79 -114 15
-29 13 -74 -2 -74 -4 0 -43 53 -86 118 -44 64 -82 119 -85 122 -15 14 -90 138
-90 148 0 25 29 10 54 -29z"/>
<path d="M3635 4124 c-71 -31 -150 -64 -174 -75 -24 -11 -64 -29 -90 -39 -25
-10 -73 -31 -106 -46 l-60 -27 81 -18 c45 -9 94 -20 110 -22 25 -5 284 -58
350 -72 19 -4 29 10 78 106 l57 110 -56 70 c-31 38 -57 69 -58 69 -1 -1 -60
-26 -132 -56z"/>
<path d="M888 2495 c-1 -1 -19 -5 -38 -8 -119 -17 -253 -111 -302 -212 -19
-39 -79 -252 -103 -365 -9 -45 -34 -133 -39 -138 -4 -3 -68 -6 -144 -7 -146
-2 -177 -10 -217 -57 -26 -29 -49 -84 -42 -101 3 -9 46 -12 181 -12 138 0 176
-2 176 -13 0 -7 -25 -113 -56 -235 -31 -122 -57 -229 -59 -237 -2 -8 -5 -22
-7 -30 -2 -13 16 -15 126 -15 l129 0 38 155 c22 85 41 164 43 175 3 11 5 20 6
20 1 0 3 9 5 20 2 11 12 51 22 90 l19 70 110 1 c60 0 112 -1 115 -3 4 -1 -13
-80 -37 -175 -47 -188 -53 -245 -28 -288 28 -47 69 -64 170 -68 l91 -4 16 61
15 62 -25 25 c-18 18 -23 31 -19 47 4 12 9 33 12 47 2 14 7 32 10 40 3 8 8 26
10 39 3 14 23 95 45 180 22 86 42 169 45 185 3 16 7 32 9 36 2 3 6 17 9 31 3
13 26 105 51 204 54 212 60 258 45 316 -16 59 -81 121 -151 145 -46 15 -219
30 -231 19z m97 -141 c25 -16 42 -56 39 -89 -1 -15 -48 -206 -80 -325 -2 -8
-12 -46 -21 -85 -10 -38 -21 -75 -25 -81 -5 -7 -49 -11 -119 -11 l-111 0 5 26
c3 14 21 89 40 166 91 357 94 366 157 394 50 22 86 24 115 5z"/>
<path d="M2461 2485 c-79 -35 -112 -112 -85 -195 9 -30 57 -55 105 -54 168 2
221 245 58 260 -26 3 -58 -2 -78 -11z"/>
<path d="M3806 2275 c-4 -14 -7 -27 -7 -30 -1 -2 -11 -42 -23 -87 l-22 -83
-57 0 c-31 0 -61 -5 -66 -10 -10 -11 -32 -106 -26 -115 2 -4 27 -5 55 -4 28 1
53 -2 55 -6 3 -4 -4 -43 -16 -86 -11 -44 -23 -90 -26 -104 -10 -47 -11 -55
-13 -57 -3 -3 -3 -6 -14 -53 -4 -19 -11 -48 -16 -65 -9 -31 -29 -106 -36 -134
-2 -9 -8 -35 -14 -59 -28 -116 -23 -174 18 -219 40 -44 66 -53 174 -60 70 -5
77 -3 87 16 7 12 10 21 7 21 -2 0 2 19 9 43 13 43 13 43 -16 56 -17 7 -32 23
-35 38 -6 20 77 376 148 639 7 28 11 30 53 29 24 -1 49 1 54 4 15 10 42 114
31 121 -5 3 -30 5 -55 5 -25 -1 -45 0 -45 3 0 2 11 46 25 98 14 52 26 100 28
107 1 9 -31 13 -124 15 l-127 3 -6 -26z"/>
<path d="M5040 2005 c-11 -44 -23 -89 -25 -100 -3 -11 -19 -74 -36 -140 -17
-66 -32 -124 -33 -130 -1 -5 -5 -19 -9 -30 -3 -11 -8 -31 -11 -45 -3 -14 -22
-88 -42 -165 -20 -77 -37 -147 -39 -155 -3 -8 -11 -39 -19 -69 -8 -30 -13 -57
-11 -60 2 -4 61 -6 131 -6 l127 0 12 43 c7 23 13 45 14 47 1 3 1 6 2 8 0 1 2
11 4 22 2 11 25 99 50 195 26 96 49 184 51 196 8 41 33 102 58 143 47 74 144
158 203 176 21 6 21 4 12 -27 -18 -62 -20 -88 -7 -89 59 -5 113 -2 123 6 9 8
47 129 47 149 0 3 6 26 14 52 7 25 12 49 9 53 -5 9 -149 6 -195 -4 -51 -11
-133 -47 -148 -65 -12 -13 -13 -11 -8 16 2 16 6 36 8 44 2 11 -22 14 -129 15
l-132 0 -21 -80z"/>
<path d="M1396 2043 c-4 -15 -16 -67 -21 -93 -3 -16 -19 -87 -21 -95 -10 -41
-76 -313 -79 -325 -2 -8 -11 -44 -20 -80 -9 -36 -19 -72 -20 -80 -31 -136 -67
-283 -72 -295 -5 -14 14 -16 167 -14 95 1 186 6 204 12 124 40 237 113 319
206 57 65 123 181 132 233 3 15 10 40 16 55 6 16 10 29 9 31 -1 1 16 74 37
162 l38 159 40 3 c22 2 61 1 86 0 l46 -4 -24 -91 c-88 -336 -115 -445 -119
-464 -2 -12 -8 -33 -12 -45 -15 -41 -14 -115 1 -145 36 -68 106 -103 217 -109
l76 -4 16 63 c9 34 12 63 8 65 -29 11 -60 46 -60 69 0 14 27 129 60 256 33
128 62 241 65 252 2 11 19 77 38 147 18 70 31 131 28 135 -3 5 -160 9 -347 11
l-341 2 -12 -42 c-10 -41 -117 -472 -126 -513 -37 -164 -53 -196 -118 -249
-54 -43 -73 -53 -120 -60 -36 -6 -38 -5 -32 16 12 43 16 56 20 75 2 10 15 65
29 123 15 58 28 114 31 125 4 22 92 378 101 410 3 11 7 34 10 50 4 17 10 38
15 48 9 16 0 17 -125 17 -120 0 -135 -2 -140 -17z"/>
<path d="M2997 2054 c-2 -3 -17 -7 -32 -10 -60 -11 -149 -60 -202 -112 -52
-51 -90 -134 -108 -234 -3 -13 -23 -97 -46 -188 -50 -200 -56 -262 -27 -319
11 -23 34 -51 52 -63 17 -12 33 -25 36 -28 16 -18 75 -32 150 -37 96 -6 165 9
226 50 l36 25 29 -28 c36 -34 95 -50 183 -50 l64 0 8 33 c4 17 9 37 10 42 13
50 12 53 -17 65 -32 14 -37 31 -25 91 2 13 7 31 10 39 3 8 7 26 10 40 2 14 11
56 21 93 9 37 18 76 20 85 2 9 4 18 5 20 3 2 4 6 13 54 5 21 7 39 7 40 -1 2 3
15 9 31 6 15 13 38 15 50 2 12 18 76 34 142 16 66 33 133 36 148 l7 28 -260
-1 c-142 -1 -261 -3 -264 -6z m233 -130 c0 -3 -9 -40 -19 -82 -11 -43 -22 -88
-25 -102 -11 -58 -97 -398 -108 -425 -25 -66 -93 -116 -163 -120 -65 -4 -91
15 -101 75 -3 16 108 485 133 565 27 82 42 90 178 93 58 1 105 0 105 -4z"/>
<path d="M4413 2045 c-23 -7 -45 -10 -48 -7 -3 3 -5 0 -5 -6 0 -7 -7 -12 -15
-12 -19 0 -82 -39 -130 -81 -42 -37 -83 -104 -96 -157 -5 -20 -11 -44 -14 -52
-2 -8 -22 -89 -45 -180 -22 -91 -43 -174 -46 -185 -34 -127 9 -228 118 -276
68 -29 220 -36 300 -13 106 31 194 91 248 169 42 61 160 531 156 618 -4 74
-48 130 -136 170 -56 26 -221 33 -287 12z m151 -148 c26 -30 18 -98 -39 -325
-25 -101 -45 -187 -45 -192 0 -5 -9 -35 -21 -66 -36 -95 -110 -145 -164 -110
-32 21 -41 74 -25 145 8 31 15 61 16 66 1 6 20 87 43 180 23 94 43 177 44 185
1 8 13 35 26 60 45 86 117 111 165 57z"/>
<path d="M2023 754 c-21 -21 -24 -32 -19 -62 12 -77 -46 -72 838 -72 756 0
790 1 809 19 11 10 22 34 26 54 4 29 1 40 -20 61 l-26 26 -791 0 -791 0 -26
-26z"/>
<path d="M2305 475 c-31 -30 -32 -73 -4 -109 l20 -26 514 0 c574 0 549 -3 561
72 5 30 2 41 -19 62 l-26 26 -511 0 -511 0 -24 -25z"/>
</g>
</svg>
