<svg width="512" height="342" viewBox="0 0 512 342" fill="none" xmlns="http://www.w3.org/2000/svg">
<path d="M512 0.333008H0V341.67H512V0.333008Z" fill="#F0F0F0"/>
<path d="M288 0.330017H224V138.996H0V202.996H224V341.662H288V202.996H512V138.996H288V0.330017Z" fill="#D80027"/>
<path d="M393.785 230.358L512 296.034V230.358H393.785Z" fill="#0052B4"/>
<path d="M311.652 230.358L512 341.662V310.188L368.307 230.358H311.652Z" fill="#0052B4"/>
<path d="M458.634 341.662L311.652 259.998V341.662H458.634Z" fill="#0052B4"/>
<path d="M311.652 230.358L512 341.662V310.188L368.307 230.358H311.652Z" fill="#F0F0F0"/>
<path d="M311.652 230.358L512 341.662V310.188L368.307 230.358H311.652Z" fill="#D80027"/>
<path d="M90.341 230.356L0 280.546V230.356H90.341Z" fill="#0052B4"/>
<path d="M200.348 244.51V341.661H25.4912L200.348 244.51Z" fill="#0052B4"/>
<path d="M143.693 230.358L0 310.188V341.662L200.348 230.358H143.693Z" fill="#D80027"/>
<path d="M118.215 111.634L0 45.958V111.634H118.215Z" fill="#0052B4"/>
<path d="M200.348 111.634L0 0.330017V31.804L143.693 111.634H200.348Z" fill="#0052B4"/>
<path d="M53.3662 0.330017L200.348 81.994V0.330017H53.3662Z" fill="#0052B4"/>
<path d="M200.348 111.634L0 0.330017V31.804L143.693 111.634H200.348Z" fill="#F0F0F0"/>
<path d="M200.348 111.634L0 0.330017V31.804L143.693 111.634H200.348Z" fill="#D80027"/>
<path d="M421.659 111.636L512 61.446V111.636H421.659Z" fill="#0052B4"/>
<path d="M311.652 97.482V0.330994H486.509L311.652 97.482Z" fill="#0052B4"/>
<path d="M368.307 111.634L512 31.804V0.330017L311.652 111.634H368.307Z" fill="#D80027"/>
</svg>